<svg id="Layer_1" enable-background="new 0 0 512 512" height="512" viewBox="0 0 512 512" width="512" xmlns="http://www.w3.org/2000/svg"><g><path d="m341.83 308.584-65.706 32.853c-6.216 3.108-13.175 4.75-20.124 4.75s-13.908-1.643-20.124-4.75l-115.376-57.688v67.688c0 1.908.364 3.799 1.073 5.571 1.138 2.845 29.082 69.679 134.427 69.679 21.711 0 40.126-2.843 55.705-7.375v-27.75c0-12.021 4.682-23.322 13.183-31.822l16.942-16.942z"/><path d="m503.71 167.27-241-120.5c-4.22-2.11-9.2-2.11-13.42 0l-241 120.5c-5.08 2.54-8.29 7.74-8.29 13.42s3.21 10.87 8.29 13.41l241 120.5c2.11 1.06 4.41 1.59 6.71 1.59s4.6-.53 6.71-1.59l109.12-54.56-112.2-56.1c-7.41-3.71-10.42-12.72-6.71-20.13 3.7-7.41 12.71-10.41 20.12-6.71l120.5 60.25c3.45 1.73 6.04 4.68 7.34 8.17l102.83-51.42c5.08-2.54 8.29-7.73 8.29-13.41s-3.21-10.88-8.29-13.42z"/><path d="m371.83 355.225-25.731 25.731c-2.813 2.813-4.394 6.628-4.394 10.606v60.25c0 8.284 6.716 15 15 15h60.25c8.284 0 15-6.716 15-15v-60.25c0-3.978-1.58-7.793-4.394-10.606l-25.731-25.731v-104.455c0-1.82-.33-3.6-.95-5.25l-29.05 14.52z"/></g></svg>