<svg id="Capa_1" enable-background="new 0 0 508 508" height="512" viewBox="0 0 508 508" width="512" xmlns="http://www.w3.org/2000/svg"><g><path d="m470.958 169.333h-433.916c-20.32 0-37.042 16.722-37.042 37.042v264.583c0 20.32 16.722 37.042 37.042 37.042h433.917c20.32 0 37.042-16.722 37.042-37.042v-264.583c-.001-20.32-16.723-37.042-37.043-37.042zm-216.958 63.5c23.283 0 42.333 19.05 42.333 42.333s-19.05 42.334-42.333 42.334-42.333-19.05-42.333-42.333 19.05-42.334 42.333-42.334zm84.667 174.625c0 8.678-7.197 15.875-15.875 15.875h-137.584c-8.678 0-15.875-7.197-15.875-15.875v-17.568c0-28.363 24.765-51.223 55.245-51.223h58.843c30.48 0 55.245 22.86 55.245 51.223z"/><path d="m470.958 0h-433.916c-20.426 0-37.042 16.616-37.042 37.042v52.917c0 20.425 16.616 37.041 37.042 37.041h433.917c20.425 0 37.041-16.616 37.041-37.042v-52.916c0-20.426-16.616-37.042-37.042-37.042z"/></g></svg>